<svg width="763" height="1077" viewBox="0 0 763 1077" fill="none" xmlns="http://www.w3.org/2000/svg">
<g filter="url(#filter0_d_501_86)">
<path d="M683.73 788.885L542.622 962.666C502.545 1006.05 562.661 1052.35 593.972 1011.47L744.681 825.593C767.642 781.794 710.448 749.674 683.73 788.885Z" fill="white"/>
<path d="M677.885 583.903L340.116 999.374C300.039 1042.76 360.155 1089.06 391.466 1048.18L738.002 621.028C760.963 577.229 704.604 544.692 677.885 583.903Z" fill="white"/>
<path d="M611.506 452.921L202.349 955.641C162.272 999.023 222.388 1045.33 253.699 1004.45L664.943 498.389C693.749 460.013 641.147 418.716 611.506 452.921Z" fill="white"/>
<path d="M507.137 368.475L97.9799 871.195C57.9024 914.577 118.019 960.88 149.33 920L560.574 413.944C589.38 375.567 536.778 334.271 507.137 368.475Z" fill="white"/>
<path d="M619.855 19.7471L24.534 752.01C-5.52439 788.719 46.6602 835.438 79.641 795.81L673.292 65.2155C702.098 26.8392 649.496 -14.4575 619.855 19.7471Z" fill="white"/>
<path d="M436.166 30.7768L15.9955 547.612C-14.0628 584.32 38.1218 631.04 71.1025 591.412L488.768 78.7482C519.244 38.7026 468.729 -1.34293 436.166 30.7768Z" fill="white"/>
</g>
<defs>
<filter id="filter0_d_501_86" x="0" y="0" width="763" height="1077" filterUnits="userSpaceOnUse" color-interpolation-filters="sRGB">
<feFlood flood-opacity="0" result="BackgroundImageFix"/>
<feColorMatrix in="SourceAlpha" type="matrix" values="0 0 0 0 0 0 0 0 0 0 0 0 0 0 0 0 0 0 127 0" result="hardAlpha"/>
<feOffset dx="3" dy="3"/>
<feGaussianBlur stdDeviation="5"/>
<feComposite in2="hardAlpha" operator="out"/>
<feColorMatrix type="matrix" values="0 0 0 0 0 0 0 0 0 0 0 0 0 0 0 0 0 0 0.25 0"/>
<feBlend mode="normal" in2="BackgroundImageFix" result="effect1_dropShadow_501_86"/>
<feBlend mode="normal" in="SourceGraphic" in2="effect1_dropShadow_501_86" result="shape"/>
</filter>
</defs>
</svg>
