<svg width="58" height="57" viewBox="0 0 58 57" fill="none" xmlns="http://www.w3.org/2000/svg">
<path d="M28.62 22.95L25.29 11.92C25.27 11.87 25.27 11.81 25.29 11.75L28.62 0.72001C28.7 0.44001 29.09 0.44001 29.18 0.72001L32.51 11.75C32.53 11.8 32.53 11.86 32.51 11.92L29.18 22.95C29.1 23.23 28.71 23.23 28.62 22.95Z" fill="white"/>
<path d="M28.95 31.8799L31.54 43.1099C31.55 43.1699 31.54 43.2199 31.53 43.2799L27.47 54.0599C27.37 54.3299 26.98 54.2999 26.91 54.0199L24.32 42.7899C24.31 42.7299 24.32 42.6799 24.33 42.6199L28.39 31.8399C28.49 31.5699 28.88 31.5999 28.95 31.8799Z" fill="white"/>
<path d="M32.7 24.99L40.79 16.79C40.79 16.79 40.88 16.72 40.94 16.71L52.22 14.36C52.5 14.3 52.69 14.64 52.49 14.85L44.4 23.05C44.4 23.05 44.31 23.12 44.25 23.13L32.97 25.48C32.69 25.54 32.5 25.2 32.7 24.99Z" fill="white"/>
<path d="M25.02 29.56L16.4 37.2C16.4 37.2 16.3 37.26 16.25 37.27L4.83999 38.86C4.54999 38.9 4.39 38.55 4.61 38.35L13.23 30.71C13.23 30.71 13.33 30.65 13.38 30.64L24.79 29.05C25.08 29.01 25.24 29.36 25.02 29.56Z" fill="white"/>
<path d="M24.88 25.5199L13.62 23.0999C13.56 23.0899 13.51 23.0599 13.47 23.0199L5.42997 14.7699C5.22997 14.5599 5.41997 14.2199 5.69997 14.2799L16.96 16.6999C17.02 16.7099 17.07 16.7399 17.11 16.7799L25.15 25.0299C25.35 25.2399 25.16 25.5799 24.88 25.5199Z" fill="white"/>
<path d="M32.86 29.5601L43.93 32.7301C43.99 32.7501 44.03 32.7801 44.07 32.8201L51.54 41.5901C51.73 41.8101 51.52 42.1401 51.24 42.0601L40.17 38.8901C40.11 38.8701 40.07 38.8401 40.03 38.8001L32.56 30.0301C32.37 29.8101 32.58 29.4801 32.86 29.5601Z" fill="white"/>
<path d="M34.13 18.1699L35.23 12.2699C35.42 11.2299 35.97 10.2799 36.77 9.58991L41.64 5.40991L40.55 11.1499C40.27 12.6399 39.46 13.9699 38.27 14.9099L34.14 18.1699H34.13Z" fill="white"/>
<path d="M23.49 18.1699L22.39 12.2699C22.2 11.2299 21.65 10.2799 20.85 9.58991L15.98 5.40991L17.07 11.1499C17.35 12.6399 18.16 13.9699 19.35 14.9099L23.48 18.1699H23.49Z" fill="white"/>
<path d="M39.53 27.3801L45.2 25.4401C46.2 25.1001 47.3 25.1101 48.29 25.4701L54.32 27.6501L48.79 29.5201C47.36 30.0101 45.79 29.9601 44.39 29.3801L39.52 27.3801H39.53Z" fill="white"/>
<path d="M34.17 36.25L38.65 40.23C39.44 40.93 39.97 41.89 40.15 42.94L41.22 49.27L36.87 45.37C35.74 44.36 35.02 42.98 34.83 41.47L34.18 36.25H34.17Z" fill="white"/>
<path d="M23.49 36.5L22.23 42.36C22.01 43.4 21.43 44.33 20.61 45L15.62 49.04L16.87 43.34C17.2 41.86 18.04 40.55 19.26 39.65L23.49 36.51V36.5Z" fill="white"/>
<path d="M18.34 27.86L12.61 29.64C11.6 29.96 10.51 29.91 9.51999 29.53L3.54999 27.17L9.12999 25.46C10.58 25.02 12.14 25.11 13.52 25.72L18.33 27.86H18.34Z" fill="white"/>
<path d="M7.03 10.3699L12.66 5.1299C12.83 4.9699 13.1 5.0799 13.13 5.2999L13.84 11.9599C13.86 12.1499 13.69 12.2999 13.5 12.2599L7.16 10.8399C6.94 10.7899 6.87 10.5199 7.03 10.3599V10.3699Z" fill="white"/>
<path d="M45.44 5.10002L50.81 10.6C50.97 10.76 50.87 11.04 50.65 11.07L44.01 11.94C43.82 11.96 43.66 11.8 43.7 11.61L44.97 5.24002C45.01 5.02002 45.29 4.94002 45.44 5.10002Z" fill="white"/>
<path d="M50.82 45.07L45.45 50.57C45.29 50.73 45.01 50.65 44.97 50.42L43.94 43.8C43.91 43.61 44.08 43.45 44.26 43.48L50.66 44.59C50.88 44.63 50.97 44.9 50.81 45.06L50.82 45.07Z" fill="white"/>
<path d="M12.67 50.4901L7.04001 45.2601C6.87001 45.1001 6.95001 44.8201 7.18001 44.7801L13.77 43.5901C13.96 43.5601 14.12 43.7201 14.1 43.9101L13.14 50.3301C13.11 50.5501 12.84 50.6501 12.67 50.4901Z" fill="white"/>
<path d="M18.03 2.5599L24.92 0.359904C25.07 0.309904 25.22 0.449904 25.18 0.609904L23.56 6.6099C23.52 6.7499 23.36 6.8099 23.24 6.7199L17.96 2.9199C17.82 2.8199 17.86 2.6099 18.02 2.5599H18.03Z" fill="white"/>
<path d="M32.72 0.529846L39.74 2.27985C39.9 2.31985 39.95 2.51985 39.83 2.62985L35.3 6.87985C35.2 6.97985 35.03 6.93985 34.97 6.80985L32.48 0.799846C32.42 0.649846 32.56 0.479846 32.72 0.519846V0.529846Z" fill="white"/>
<path d="M18.03 53.4101L24.92 55.6101C25.07 55.6601 25.22 55.5201 25.18 55.3601L23.56 49.3601C23.52 49.2201 23.36 49.1601 23.24 49.2501L17.96 53.0501C17.82 53.1501 17.86 53.3601 18.02 53.4101H18.03Z" fill="white"/>
<path d="M32.72 55.44L39.74 53.69C39.9 53.65 39.95 53.45 39.83 53.34L35.3 49.09C35.2 48.99 35.03 49.03 34.97 49.16L32.48 55.17C32.42 55.32 32.56 55.49 32.72 55.45V55.44Z" fill="white"/>
<path d="M54.67 17.28L56.24 24.34C56.27 24.5 56.12 24.63 55.97 24.57L50.14 22.42C50.01 22.37 49.96 22.2 50.06 22.1L54.32 17.19C54.43 17.06 54.64 17.12 54.67 17.28Z" fill="white"/>
<path d="M2.75001 17.28L1.18001 24.34C1.15001 24.5 1.30001 24.63 1.45001 24.57L7.28001 22.42C7.41001 22.37 7.46001 22.2 7.36001 22.1L3.10001 17.19C2.99001 17.06 2.78001 17.12 2.75001 17.28Z" fill="white"/>
<path d="M56.23 31.3101L53.85 38.1401C53.8 38.2901 53.6 38.3301 53.5 38.2001L49.67 33.3101C49.58 33.2001 49.63 33.0301 49.77 32.9901L55.98 31.0501C56.14 31.0001 56.29 31.1501 56.23 31.3101Z" fill="white"/>
<path d="M1.19002 31.3101L3.57002 38.1401C3.62002 38.2901 3.82002 38.3301 3.92002 38.2001L7.75002 33.3101C7.84002 33.2001 7.79002 33.0301 7.65002 32.9901L1.44002 31.0501C1.28002 31.0001 1.13002 31.1501 1.19002 31.3101Z" fill="white"/>
<path d="M0 41.1399V53.8299L4.51 49.0299L0 41.1399Z" fill="white"/>
<path d="M0 14.3101V1.62012L4.51 6.42012L0 14.3101Z" fill="white"/>
<path d="M57.2 14.3101V1.62012L52.7 6.42012L57.2 14.3101Z" fill="white"/>
<path d="M52.7 49.0299L57.2 41.1399V53.8299" fill="white"/>
<path d="M2.78003 56.1001L6.93003 51.3701L14.62 56.7801L2.78003 56.1001Z" fill="white"/>
<path d="M43.1801 56.7801L55.0201 56.1001L50.8701 51.3701" fill="white"/>
<path d="M2.78003 0.69L6.93003 5.41L14.62 0L2.78003 0.69Z" fill="white"/>
<path d="M43.1801 0L55.0201 0.69L50.8701 5.41" fill="white"/>
</svg>
