<svg width="309" height="172" viewBox="0 0 309 172" fill="none" xmlns="http://www.w3.org/2000/svg">
<path d="M308.69 162.31C307.61 162.07 298.58 160.94 296.18 161.41C294.47 161.74 289.68 164.87 288.35 165.5C287.42 165.94 286.93 166.1 286.51 166.04C284.88 164.14 283.28 161.55 281.22 160.09C278.91 158.45 272.51 158.04 272.94 158.48C273.45 159.02 277.48 159.39 279.51 160.85C281.03 161.94 282.33 164.03 283.06 165.45C282.96 165.64 282.93 165.81 282.69 165.95C282.2 166.23 282.06 166.4 282.34 166.47C282.62 166.54 282.79 166.47 282.93 166.61C283.07 166.75 283.38 167.24 284.15 167.31C284.92 167.38 284.32 168.36 284.99 169.13C285.91 170.2 287.05 169.65 287.44 169.9C287.82 170.14 287.54 171.16 287.75 171.26C287.96 171.36 288.69 170.84 289.22 170.67C289.74 170.5 290.41 170.51 290.44 170.21C290.47 169.91 289.01 169.45 288.83 169.14C288.74 168.98 288.65 168.6 288.49 168.16C291.62 167.54 295.65 164.64 296.52 164.06C297.46 163.43 298.55 163.7 300.68 163.58C302.81 163.46 309.77 162.56 308.68 162.32L308.69 162.31Z" fill="white"/>
<path d="M183.93 53.9102C179.95 54.1202 176.07 56.8002 173.91 57.6302C174.33 57.0202 174.92 56.4902 174.67 56.0602C174.32 55.4602 172.32 56.0602 171.07 56.9502C171.04 56.9702 171 57.0002 170.97 57.0302C169.2 56.4702 167.95 51.9102 163.71 51.0102C158.25 49.8502 149.2 54.4502 148.79 55.0302C148.38 55.6102 152.17 55.0902 156.42 55.2602C160.67 55.4302 161.61 54.3902 164.23 55.4302C166.36 56.2802 168.18 59.0802 168.88 60.7402C168.45 61.8502 167.92 62.9802 167.14 63.4102C166.21 63.9302 165.51 65.2202 167.14 65.2702C168.77 65.3302 168.95 63.9902 170.35 63.0602C171.06 62.5802 171.82 61.6102 172.42 60.6402C173.74 59.7102 174.88 59.4102 176.52 59.2102C178.38 58.9802 181.18 57.2302 184.62 57.1702C189.24 57.0902 190.68 60.2002 190.86 59.6202C191.03 59.0402 188.3 53.6802 183.93 53.9102Z" fill="white"/>
<path d="M230.31 96.5003C229.83 95.8103 223.66 93.0403 218.81 93.3803C213.96 93.7303 210.31 96.1103 209.4 95.6803C209.19 94.9103 208.98 94.3403 208.83 94.2803C208.52 94.1503 208.08 94.3003 207.57 94.6203C206.17 92.8903 201.42 86.7903 199.13 85.9003C196.64 84.9303 188.53 87.0803 188.18 87.9103C187.83 88.7403 193.58 87.6303 198.64 89.9203C201.82 91.3603 204 95.7603 204.49 97.6003C203.9 98.3503 203.47 99.0203 203.4 99.3403C203.18 100.38 208.96 101.28 209.79 101.07C210.04 101.01 210.1 100.41 210.05 99.5903C210.98 98.8203 212.75 97.9003 216.58 97.5903C220.6 97.2703 230.78 97.2003 230.3 96.5003H230.31Z" fill="white"/>
<path d="M169.38 112.01C170.13 112.29 173.52 115.52 174.61 116C175.7 116.48 174.74 114.8 173.77 112.71C172.81 110.62 170.93 107.52 169.71 108.02C168.67 108.45 163.21 111.51 160.65 112.2C160.32 111.51 159.98 111.03 159.76 111.03C159.58 111.03 159.28 111.47 158.97 112.1C156.76 111.12 151.89 107.5 149.76 108.02C148.85 108.24 146.41 110.36 144.45 111.83C142.48 113.29 141.15 113.92 141.23 114.34C141.31 114.76 144.12 114.5 145.96 113.83C147.8 113.16 150.85 111.95 152.03 111.87C153.05 111.8 156.92 113.81 157.91 114.72C157.68 115.41 157.53 115.98 157.56 116.17C157.64 116.8 160.57 116.59 161.33 116.59C161.83 116.59 161.87 116.03 161.7 115.21C162.19 114.73 163.21 114.41 164.51 113.82C166.18 113.07 168.65 111.71 169.4 112L169.38 112.01Z" fill="white"/>
<path d="M131.81 74.1402C134.17 73.4902 135.97 74.9302 135.41 73.9602C134.86 72.9902 132.45 71.1302 129.82 71.8402C127.42 72.4902 125.11 73.7302 123.26 74.7502C121.62 75.6502 119.29 76.7402 117.75 77.8702C117.77 76.4602 117.56 75.3002 117.16 75.3002C116.63 75.3002 115.86 76.1102 114.89 77.6202C114.46 77.6202 114.07 77.1902 113.47 76.5902C112.68 75.8002 109.5 72.6602 108.48 72.1102C107.46 71.5602 105.57 71.9702 102.57 72.1102C99.57 72.2502 95.87 71.3702 96.43 72.1602C96.98 72.9502 99.94 74.3802 102.06 75.0202C104.18 75.6702 106.55 75.2102 107.21 75.6702C107.9 76.1502 109.95 78.3902 111.2 79.5502C111.83 80.1402 112.5 80.7002 112.99 81.2202C112.58 82.3202 112.4 83.2702 112.4 83.6202C112.4 84.1302 111.57 85.3802 111.61 85.7902C111.65 86.2002 112.9 84.9702 113.69 85.9302C114.34 86.7202 114.48 86.0202 114.52 85.2402C114.57 84.4502 116.32 83.6202 117.15 81.5002C117.21 81.3402 117.27 81.1802 117.32 81.0002C118.26 80.5902 119.58 80.2202 121.4 79.4702C124.31 78.2702 129.44 74.8102 131.79 74.1602L131.81 74.1402Z" fill="white"/>
<path d="M233.8 128.62C237.18 128.69 239.29 127.29 240.47 127.89C241.37 128.35 243.16 129.75 245.36 130.46C245.77 130.27 246.21 130.13 246.59 130.09C247.58 129.97 248.66 130.09 248.94 130.61C248.97 130.66 248.98 130.71 248.98 130.78C251.39 130.35 253.18 128.77 253.76 129.02C254.45 129.32 255.4 130.52 257.32 132.11C259.29 133.74 261.86 134.07 262.12 134.47C262.38 134.87 259.81 135 257.32 134.07C254.83 133.14 253.86 132.01 253.29 131.81C252.81 131.64 250.05 132.97 247.33 133.07C247.15 133.2 246.96 133.32 246.78 133.41C245.88 133.85 243.57 134.09 243.08 134.09C242.54 134.09 242.26 134.05 242.11 134.23C241.86 134.52 241.65 134.77 241.48 134.77C241.32 134.77 241.27 134.46 241.34 134.26C241.41 134.05 241.07 133.85 241.19 133.67C241.31 133.49 241.8 133.46 242.03 133.31C242.17 133.22 242.73 132.7 243.26 132.18C241.51 131.38 240.24 130.3 239.86 129.92C239.3 129.36 236.89 130.48 233.65 130.42C230.42 130.35 228.21 127.9 228.47 127.75C228.73 127.6 230.42 128.56 233.8 128.63V128.62Z" fill="white"/>
<path d="M110.28 28.3901C109.01 26.5801 92.8701 19.3201 80.1801 20.2301C67.4901 21.1401 57.9401 27.3701 55.5501 26.2501C55.0101 24.2201 54.4601 22.7601 54.0701 22.5901C53.2701 22.2501 52.1001 22.6501 50.7701 23.4801C47.1201 18.9401 34.6901 2.98012 28.6901 0.65012C22.1601 -1.88988 0.950069 3.73012 0.0400688 5.90012C-0.869931 8.08012 14.1801 5.17012 27.4201 11.1601C35.7301 14.9201 41.4401 26.4401 42.7401 31.2501C41.1901 33.2101 40.0701 34.9701 39.8901 35.8101C39.3101 38.5301 54.4401 40.8901 56.6101 40.3401C57.2501 40.1801 57.4101 38.6101 57.2801 36.4601C59.7101 34.4401 64.3401 32.0301 74.3701 31.2201C84.8901 30.3701 111.55 30.1901 110.28 28.3801V28.3901Z" fill="white"/>
<path d="M134.13 4.43018C142.31 4.59018 147.4 1.22018 150.25 2.66018C152.43 3.76018 156.75 7.16018 162.07 8.88018C163.07 8.42018 164.13 8.08018 165.03 7.98018C167.44 7.69018 170.04 8.00018 170.72 9.24018C170.78 9.35018 170.82 9.49018 170.82 9.65018C176.66 8.62018 180.97 4.79018 182.37 5.39018C184.04 6.11018 186.34 9.01018 190.99 12.8502C195.75 16.7802 201.96 17.5802 202.59 18.5502C203.21 19.5102 197.01 19.8302 190.99 17.5902C184.98 15.3402 182.62 12.6202 181.26 12.1302C180.1 11.7202 173.41 14.9302 166.85 15.1802C166.42 15.5002 165.97 15.7702 165.51 16.0002C163.33 17.0602 157.76 17.6402 156.55 17.6402C155.26 17.6402 154.56 17.5502 154.2 17.9802C153.6 18.6902 153.09 19.2802 152.67 19.2802C152.29 19.2802 152.16 18.5402 152.33 18.0402C152.5 17.5402 151.68 17.0502 151.96 16.6102C152.24 16.1802 153.43 16.1102 154 15.7402C154.33 15.5202 155.69 14.2702 156.99 13.0202C152.77 11.1002 149.7 8.48018 148.76 7.55018C147.4 6.19018 141.57 8.91018 133.75 8.75018C125.94 8.59018 120.6 2.65018 121.22 2.29018C121.84 1.93018 125.93 4.26018 134.12 4.42018L134.13 4.43018Z" fill="white"/>
</svg>
