<svg width="271" height="167" viewBox="0 0 271 167" fill="none" xmlns="http://www.w3.org/2000/svg">
<g clip-path="url(#clip0_316_2985)">
<path d="M266.3 160.92L227.88 110.53L224.41 105.98L167.16 30.8901C167.16 30.8901 167.16 38.5201 166.95 48.5301C166.91 50.3901 166.87 52.3301 166.81 54.3101C166.44 67.6401 165.68 83.1501 164.11 90.7601C162.15 100.31 158.16 117.55 155.55 128.67C155.06 130.74 154.62 132.59 154.25 134.15C153.51 137.27 153.05 139.2 153.05 139.2L148.04 140.75L145.45 135.91L142.94 131.21L108.78 67.2901L106.01 62.1101L75.25 4.58008C75.25 4.58008 71.19 31.3001 67.75 52.8701C67.47 54.6201 67.19 56.3401 66.92 58.0101C65.85 64.6201 64.89 70.4201 64.19 74.3701C62.23 85.4101 54.27 108.28 48.84 123.19C48.02 125.43 47.27 127.48 46.6 129.29C44.79 134.19 43.6 137.29 43.6 137.29C43.6 137.29 42.71 139.11 41.54 141.74L37.83 131.93L36.04 127.18L20.05 84.8901C17.37 91.8701 12.71 104.49 8.88997 117.46C7.53997 122.04 6.27997 127.35 5.13997 132.81C4.77997 134.52 4.43997 136.25 4.10997 137.97C2.30997 147.23 0.879971 156.36 -2.89742e-05 162.43C-0.340029 164.77 256.52 163.65 269.08 166.92L270.67 161.62L270.88 160.92H266.3ZM28.76 142.5C28.17 148.2 24.34 152.48 20.22 152.05C16.09 151.62 13.23 146.65 13.82 140.95C13.98 139.41 14.38 137.97 14.95 136.7C16.5 133.28 19.36 131.09 22.37 131.4C24.28 131.6 25.92 132.77 27.07 134.54C28.41 136.59 29.08 139.44 28.76 142.51V142.5ZM75.93 101.77C78.03 91.6701 86.91 84.9701 95.78 86.8101C104.65 88.6501 110.14 98.3201 108.04 108.43C105.95 118.53 97.06 125.23 88.2 123.39C79.33 121.55 73.84 111.87 75.93 101.77ZM209.11 119.51C207.23 128.57 199.4 134.6 191.62 132.99C187.5 132.13 184.22 129.32 182.32 125.51C181.59 124.04 181.06 122.42 180.77 120.7C180.39 118.47 180.41 116.08 180.92 113.66C182.8 104.6 190.63 98.5601 198.42 100.18C202.47 101.02 205.7 103.75 207.61 107.46C208.36 108.91 208.91 110.52 209.22 112.22C209.23 112.26 209.24 112.3 209.24 112.35C209.64 114.61 209.62 117.04 209.11 119.5V119.51Z" fill="white"/>
<g opacity="0.4">
<path d="M43.5999 137.28C43.5999 137.28 42.7099 139.1 41.5399 141.73L37.8299 131.92L36.0399 127.17L20.0499 84.8801C21.3899 81.3901 22.2399 79.3201 22.2399 79.3201L39.5099 126.19L41.2599 130.94L43.5999 137.28Z" fill="white"/>
<path d="M153.05 139.19L148.04 140.74L145.45 135.9L142.94 131.2L108.78 67.28C110.16 67.34 111.55 67.36 112.93 67.36C113.38 67.36 113.83 67.36 114.28 67.35L148.23 130.26L150.73 134.9L153.05 139.19Z" fill="white"/>
<path d="M114.27 67.35C113.82 67.36 113.37 67.36 112.92 67.36C111.53 67.36 110.15 67.34 108.77 67.28L106 62.1L75.2499 4.58L77.9199 0L111.55 62.31L114.27 67.35Z" fill="white"/>
<path d="M270.88 149.87L266.3 160.93L227.88 110.54L224.41 105.99L167.16 30.8999L169.07 25.9399C169.07 25.9399 196.53 59.1199 205.68 70.9399C209.39 75.7299 220.78 89.5799 233.04 104.37C234.23 105.81 235.43 107.25 236.63 108.69C253.58 129.14 270.9 149.87 270.9 149.87H270.88Z" fill="white"/>
</g>
</g>
<defs>
<clipPath id="clip0_316_2985">
<rect width="270.88" height="166.92" fill="white"/>
</clipPath>
</defs>
</svg>
