<svg width="440" height="236" viewBox="0 0 440 236" fill="none" xmlns="http://www.w3.org/2000/svg">
<path d="M5.93994 235.19C-0.550062 235.19 -2.34006 226.12 3.71994 223.81C3.82994 223.77 3.94994 223.72 4.06994 223.69C10.6499 221.5 60.5199 197.39 88.4699 188.07C116.42 178.75 158.62 165.05 176.15 165.6C188.32 165.98 216.07 169 234.84 172.46C243.11 173.99 249.65 175.6 252.33 177.11C261.1 182.04 266.58 195.74 264.39 206.7C262.84 214.44 259.11 225.46 257.05 231.27C256.21 233.63 253.98 235.2 251.48 235.2H5.93994V235.19Z" fill="white"/>
<path d="M292.57 1.10006C287.63 6.71006 281.47 14.6501 279.64 21.1901C278.64 24.7601 277.51 28.6201 276.62 34.1801C261.61 39.0901 243.58 45.4201 234.33 48.7001C234.86 25.5301 258.42 2.07006 268.83 0.410057C274.36 -0.469943 283.8 0.190057 292.56 1.10006H292.57Z" fill="white"/>
<path d="M297.33 12.34C295.61 15.8 290.58 24.4 288.35 30.21C286.23 30.85 284.71 31.57 282.25 32.36C283.22 27.77 284.72 23.19 287.17 17.84C289.53 12.68 294.44 6.53002 298.65 1.77002C300.28 1.96002 301.83 2.15002 303.28 2.32002C300.57 6.67002 297.87 11.45 297.34 12.33C297.76 11.49 298.03 10.96 298.09 10.84C297.3 12.33 297.11 12.71 297.33 12.35V12.34Z" fill="white"/>
<path d="M340.8 23.36C326.47 24.28 306.51 25.8499 297.63 27.8799C296.08 28.2299 294.09 28.77 291.76 29.45C293.43 24.75 297.33 16.39 306.48 2.69995C308.46 2.92995 310.11 3.10995 311.3 3.20995C318.55 3.76995 332.49 4.31995 336.95 11.02C338.42 13.22 339.7 17.53 340.81 23.37L340.8 23.36Z" fill="white"/>
<path d="M276.03 69.6901C265.46 81.8001 246.7 102.04 236.09 113.43C235.32 90.7201 234.65 69.2601 234.42 56.8501C246.82 53.2801 262.08 48.8901 275.44 45.1001C275.19 48.9001 275.04 53.2901 275.04 58.4101C275.04 60.2501 275.42 64.2801 276.03 69.6901Z" fill="white"/>
<path d="M288.44 41.4402C288.53 45.5202 288.66 50.6002 288.85 55.8002C286.57 58.0302 284.03 60.7102 281.13 63.9202C280.59 57.7302 280.25 51.5502 280.67 45.0202C280.7 44.5402 280.73 44.0602 280.77 43.5902C283.45 42.8302 286.02 42.1102 288.44 41.4302V41.4402Z" fill="white"/>
<path d="M344.87 63.6801C333.83 56.7701 321.38 49.0601 319.79 48.3801C316.86 47.1201 314.35 45.0301 305.99 45.8701C301.13 46.3601 296.97 48.4001 291.32 53.4801L290.78 40.7901C297.97 38.7801 303.49 37.2701 305.99 36.6701C313.22 34.9301 329.94 33.6301 342.28 32.8601C343.41 41.6201 344.28 52.2401 344.87 63.6801Z" fill="white"/>
<path d="M286.15 143.54C285.77 143.54 285.3 143.54 284.75 143.54C281.93 143.54 277.15 143.62 272.12 144.09C269.61 144.32 267.04 144.65 264.62 145.12C262.2 145.59 259.93 146.19 258.02 146.97C256.64 147.54 255.09 148.48 253.43 149.67C250.94 151.46 248.18 153.83 245.41 156.41C242.83 158.82 240.24 161.4 237.87 163.86C237.42 151.54 236.91 137.47 236.42 123.44C245.68 113.09 264.21 92.41 277.06 78.29C279.68 99.14 284.14 129.93 286.14 143.54H286.15Z" fill="white"/>
<path d="M300.46 147.01C299.19 145.95 297.79 145.2 296.4 144.67C294.76 144.04 293.13 143.73 291.7 143.58C291.63 143.58 291.56 143.57 291.5 143.56C289.07 128.1 283.35 91.2201 282.69 81.3801C282.5 78.5001 282.24 75.6801 281.98 72.9001C285.18 69.4101 287.73 66.6801 289.26 65.0901C289.43 68.2701 289.64 71.2801 289.88 73.8901C290.78 83.6701 297.27 126.3 300.46 147.01Z" fill="white"/>
<path d="M321.05 169.68C315.77 170.19 311.96 169.32 309.21 167.87C311.38 175.28 313.58 183.33 314.86 188.9C315.3 190.82 315.64 192.45 315.82 193.68C315.93 194.38 315.99 194.94 315.99 195.39C315.99 195.52 315.99 195.65 315.97 195.77C315.96 195.89 315.93 196.01 315.88 196.15C315.84 196.24 315.78 196.49 315.73 196.8C315.68 197.12 315.63 197.52 315.58 197.99C315.48 198.92 315.39 200.11 315.28 201.43C315.05 204.07 314.74 207.24 314.11 210.09C313.68 211.99 313.12 213.76 312.31 215.16C311.84 215.96 311.29 216.64 310.6 217.14C310.34 217.33 310.03 217.52 309.67 217.71C309.31 217.9 308.9 218.1 308.45 218.3C307.54 218.71 306.44 219.15 305.2 219.61C303.04 220.41 300.45 221.27 297.7 222.14C297.7 222.2 297.7 222.26 297.7 222.32L302.2 223.82C303.67 224.31 305.07 224.97 306.38 225.78C309.47 227.7 316 231.31 321.33 231.31C328.58 231.31 340.85 224.06 340.85 217.92C340.85 215.22 341.93 192.61 343.05 165.63C337.51 167.11 329.75 168.83 321.05 169.68Z" fill="white"/>
<path d="M343.43 155.91C339.78 156.67 335.29 157.37 330.66 157.55C319.78 157.97 313.09 160.48 309.33 154.62C307.55 151.86 305.59 146.73 304.01 142.08C302.11 136.49 300.72 130.75 299.82 124.91L292.91 80.3199C292.52 77.7999 292.26 75.2499 292.14 72.6999L291.72 62.7899C296.74 58.6199 303.87 55.0299 308.5 54.6399C313.52 54.2199 314.36 56.3099 321.05 58.8199C325.59 60.5199 337.85 67.6299 345.26 72.0099C345.28 72.4899 345.3 72.9699 345.31 73.4599C345.87 88.4599 344.72 123.87 343.44 155.9L343.43 155.91Z" fill="white"/>
<path d="M306.47 2.70007C306.1 2.66007 305.72 2.61007 305.33 2.57007L306.47 2.70007Z" fill="white"/>
<path d="M311.45 197.42C310.68 199.48 311.07 213.35 306.83 216.43C305.21 217.61 299.91 219.46 293.98 221.3C284.42 224.27 273.24 227.19 273.24 227.19L258.01 229.73C259.58 229.2 260.86 227.97 261.44 226.35C262.68 222.87 264.55 217.4 266.12 212.01C267.01 208.96 267.8 205.94 268.32 203.33C270.38 193.06 265.24 180.22 257.02 175.6C254.51 174.19 248.39 172.68 240.63 171.25C240.55 171.23 240.46 171.22 240.38 171.2C239.74 171.08 239.09 170.97 238.43 170.85C239.03 170.21 239.65 169.55 240.3 168.88C246.43 162.48 254.3 154.97 259.08 153C266.6 149.9 280.98 149.85 284.82 149.9C285.44 149.9 285.78 149.92 285.78 149.92C285.78 149.92 287.47 149.68 289.76 149.92C292.29 150.19 295.54 151.05 298.06 153.47C299.29 154.65 300.35 156.21 301.06 158.26C302.13 161.34 303.59 166.03 305.09 171.11C308.46 182.56 311.99 195.98 311.46 197.41L311.45 197.42Z" fill="white"/>
<path d="M346.63 174.57C346.69 173.13 347.07 167.91 352.35 167.87C362.11 167.79 395.29 178.31 409.24 181.46C423.18 184.6 429.88 192.55 430.99 196.94C432.11 201.33 439.36 226.43 439.36 226.43L344.83 221.97L346.64 174.57H346.63Z" fill="white"/>
</svg>
