<svg width="203" height="290" viewBox="0 0 203 290" fill="none" xmlns="http://www.w3.org/2000/svg">
<path d="M201.06 282.11C200.31 281.32 199.26 280.81 198.09 280.75C187.19 280.22 157.66 277.89 142.28 267.97C123.18 255.65 121.34 219.31 121.34 219.31V115.21C121.34 110.32 126.62 104.47 127.86 103.16C128.02 102.99 128.19 102.83 128.38 102.69L174.84 67.26C176.4 66.07 176.98 64 176.26 62.17C174.32 57.19 169.89 47.59 163.22 43.14C155.5 37.99 141.3 31.54 136.86 29.57C136.4 29.37 135.92 29.24 135.41 29.21C134.74 27.83 133.11 16.43 118.86 16.43C118.86 16.43 118.1 13.47 117.61 10.83C116.43 4.5 110 0 99.84 0C89.68 0 84.58 3.8 82.11 10.78C81.07 13.73 80.35 16.52 80.35 16.52C62.97 16.52 61.5 27.09 60.74 29.21H60.6C60.59 29.26 60.57 29.29 60.57 29.29C60.57 29.29 43.7 32.68 32.62 43.15C25.19 50.17 21.9 57.47 20.55 61.52C19.94 63.35 20.6 65.36 22.17 66.48C31.6 73.2 64.92 97.1 70.19 102.9C74.61 107.76 76.18 111.04 76.71 112.5C76.89 112.98 76.97 113.48 76.97 113.99V205.88C76.97 215.62 74.86 225.23 70.76 234.06C65.6 245.16 57.49 259.26 47.4 265.52C33.51 274.14 12.54 277.17 3.89997 278.1C1.66997 278.34 -0.0300293 280.22 -0.0300293 282.46V285.15C-0.0300293 287.58 1.93997 289.54 4.35997 289.54H197.76C199.98 289.54 202.04 287.73 202.22 285.52C202.33 284.2 201.86 282.99 201.03 282.12L201.06 282.11ZM166.09 50.52L169.29 54.81L170.2 54.86L171.89 58.09C172.46 58.12 173.38 59.03 173.96 60.11L175.65 63.34L169.41 62.94L167.72 59.71C167.15 58.63 167.15 57.78 167.72 57.82H167.78L166.06 54.53L167.07 54.6L165.94 50.48C165.91 50.36 166 50.36 166.09 50.49V50.52ZM158.17 49.79C158.15 49.66 158.27 49.67 158.37 49.8L161.7 54.33L162.92 54.39L164.47 57.8C165.23 57.84 166.27 58.8 166.79 59.94L168.33 63.35L159.99 62.93L158.44 59.52C157.93 58.37 158.13 57.48 158.89 57.52H158.97L157.4 54.06L158.74 54.12L158.16 49.78L158.17 49.79ZM147.68 54.34L147.76 49.89C147.76 49.76 147.93 49.77 148.03 49.89L151.64 54.4H153.28L154.69 57.84C155.72 57.84 156.94 58.77 157.41 59.93L158.83 63.37H147.61L146.19 59.93C145.71 58.78 146.16 57.84 147.19 57.84H147.3L145.86 54.34H147.67H147.68ZM133.05 54.03H135.04L136.13 49.39C136.16 49.25 136.35 49.26 136.44 49.39L139.41 54.09H141.22L142 57.68C143.13 57.68 144.26 58.65 144.53 59.85L145.31 63.44H132.93L132.15 59.85C131.88 58.65 132.59 57.68 133.72 57.68H133.84L133.04 54.03H133.05ZM126.14 25.77H126.2L125.91 24.95L126.15 23.5L125.88 20.62C125.88 20.53 125.96 20.53 126.03 20.62L128.24 23.54L129.61 24.72L130.09 25.77C130.63 25.77 131.33 26.37 131.66 27.12L132.65 29.34H126.75L125.77 27.12C125.44 26.37 125.61 25.77 126.15 25.77H126.14ZM121.26 25.34H121.77L121.95 23.28C121.95 23.22 122 23.22 122.03 23.28L122.99 25.32H123.55L123.84 26.92H123.87C124.19 26.92 124.52 27.35 124.61 27.87L124.89 29.44H121.4L121.13 27.87C121.03 27.35 121.22 26.92 121.54 26.92L121.26 25.35V25.34ZM119.02 25.31L119.3 26.91H119.33C119.65 26.91 119.98 27.34 120.08 27.86L120.36 29.43H116.87L116.59 27.86C116.49 27.34 116.68 26.91 117 26.91L116.72 25.34H117.23L117.41 23.28C117.41 23.22 117.46 23.22 117.49 23.28L118.44 25.32H119.01L119.02 25.31ZM108.07 8.54C108.16 8.54 108.21 8.47 108.21 8.37V8.34L108.11 6.02C108.2 6.16 109 8.28 109 8.28C109.03 8.4 109.13 8.48 109.22 8.48H109.26C109.36 8.48 109.46 8.59 109.48 8.71L109.6 9.22C109.82 9.22 110.62 12.42 110.82 13.45L111.37 16.28C111.4 16.41 111.34 16.51 111.23 16.51H109.22C109.12 16.51 109.02 16.41 108.99 16.28L108.44 13.45C108.24 12.43 107.79 9.22 108.01 9.22L107.92 8.76C107.89 8.63 107.95 8.53 108.06 8.53L108.07 8.54ZM104.14 9.22L104.11 8.77C104.1 8.64 104.19 8.54 104.31 8.54C104.42 8.54 104.51 8.45 104.51 8.34L104.75 6.04C104.82 6.18 105.45 8.29 105.45 8.29C105.47 8.41 105.57 8.49 105.68 8.49H105.72C105.84 8.49 105.94 8.59 105.96 8.72L106.03 9.22C106.29 9.22 106.75 12.39 106.83 13.4L107.05 16.2C107.05 16.33 106.97 16.43 106.85 16.43H104.46C104.34 16.43 104.24 16.33 104.22 16.2L104 13.4C103.92 12.39 103.88 9.22 104.14 9.22ZM103.38 24.94V26.66C103.74 26.66 104.03 27.13 104.03 27.71V29.43H100.09V27.71C100.09 27.13 100.38 26.66 100.74 26.66H100.78V24.91H101.41L102.08 22.68C102.1 22.61 102.15 22.61 102.18 22.68L102.8 24.94H103.37H103.38ZM99.53 13.43C99.53 12.43 99.74 9.28 100 9.28L100.03 8.78C100.03 8.66 100.13 8.56 100.25 8.56H100.29C100.41 8.56 100.49 8.47 100.51 8.36C100.51 8.36 100.96 6.27 101.03 6.14L101.45 8.41C101.46 8.53 101.55 8.61 101.66 8.61C101.78 8.61 101.88 8.71 101.88 8.84V9.28C102.13 9.28 102.34 12.42 102.34 13.43V16.2C102.34 16.33 102.24 16.43 102.12 16.43H99.73C99.61 16.43 99.51 16.33 99.51 16.2V13.43H99.53ZM96.11 13.43C96.11 12.43 96.32 9.28 96.58 9.28L96.61 8.78C96.61 8.66 96.71 8.56 96.83 8.56H96.87C96.98 8.56 97.07 8.47 97.09 8.36C97.09 8.36 97.54 6.27 97.61 6.14L98.03 8.41C98.04 8.53 98.14 8.61 98.25 8.61C98.37 8.61 98.47 8.71 98.47 8.84V9.28C98.73 9.28 98.94 12.42 98.94 13.43V16.2C98.94 16.33 98.84 16.43 98.72 16.43H96.33C96.21 16.43 96.11 16.33 96.11 16.2V13.43ZM94.93 27.71C94.93 27.13 95.22 26.66 95.58 26.66H95.62V24.91H96.25L96.92 22.68C96.94 22.61 97 22.61 97.02 22.68L97.64 24.94H98.21V26.66C98.57 26.66 98.86 27.13 98.86 27.71V29.43H94.92V27.71H94.93ZM91.68 13.4C91.76 12.39 92.22 9.22 92.48 9.22L92.55 8.72C92.56 8.59 92.67 8.49 92.79 8.49H92.83C92.94 8.49 93.04 8.41 93.06 8.29C93.06 8.29 93.69 6.18 93.76 6.04L94 8.34C94 8.46 94.09 8.54 94.2 8.54C94.31 8.54 94.4 8.64 94.4 8.77L94.37 9.22C94.63 9.22 94.59 12.39 94.51 13.4L94.29 16.2C94.28 16.33 94.17 16.43 94.05 16.43H91.66C91.54 16.43 91.45 16.33 91.46 16.2L91.68 13.4ZM87.71 13.45C87.91 12.43 88.71 9.22 88.93 9.22L89.05 8.71C89.08 8.59 89.18 8.48 89.28 8.48H89.31C89.41 8.48 89.5 8.39 89.53 8.28C89.53 8.28 90.33 6.15 90.42 6.02L90.32 8.34V8.37C90.32 8.47 90.37 8.54 90.46 8.54C90.56 8.54 90.62 8.64 90.6 8.77L90.51 9.23C90.73 9.23 90.29 12.43 90.08 13.46L89.53 16.29C89.51 16.42 89.4 16.52 89.31 16.52H87.3C87.2 16.52 87.14 16.42 87.16 16.29L87.71 13.46V13.45ZM78.75 27.86C78.84 27.34 79.17 26.91 79.49 26.91H79.52L79.81 25.31H80.37L81.32 23.27C81.35 23.22 81.4 23.22 81.41 23.27L81.59 25.33H82.1L81.82 26.9C82.14 26.9 82.32 27.33 82.23 27.85L81.96 29.42H78.47L78.75 27.85V27.86ZM74.21 27.86C74.31 27.34 74.64 26.91 74.96 26.91H74.99L75.27 25.31H75.84L76.79 23.27C76.82 23.22 76.87 23.22 76.87 23.27L77.05 25.33H77.56L77.28 26.9C77.6 26.9 77.78 27.33 77.69 27.85L77.41 29.42H73.92L74.2 27.85L74.21 27.86ZM23.84 63.36L25.54 60.13C26.11 59.05 27.03 58.14 27.6 58.11L29.29 54.88L30.2 54.83L33.4 50.54C33.5 50.41 33.59 50.4 33.56 50.53L32.43 54.65L33.43 54.58L31.71 57.87H31.77C32.34 57.83 32.35 58.68 31.78 59.76L30.08 62.99L23.84 63.39V63.36ZM31.15 63.36L32.7 59.95C33.21 58.8 34.25 57.85 35.02 57.81L36.57 54.4L37.79 54.34L41.12 49.81C41.22 49.68 41.34 49.67 41.32 49.8L40.74 54.14L42.08 54.08L40.51 57.54H40.59C41.36 57.5 41.56 58.39 41.04 59.54L39.49 62.95L31.15 63.37V63.36ZM52.28 57.84C53.31 57.84 53.76 58.77 53.28 59.93L51.87 63.37H40.65L42.06 59.93C42.54 58.78 43.75 57.84 44.78 57.84L46.2 54.4H47.84L51.45 49.89C51.56 49.76 51.73 49.75 51.73 49.89L51.8 54.34H53.61L52.17 57.84H52.28ZM67.34 59.84L66.56 63.43H54.19L54.97 59.84C55.23 58.64 56.36 57.67 57.49 57.67L58.27 54.08H60.08L63.04 49.38C63.13 49.24 63.31 49.24 63.35 49.38L64.44 54.02H66.44L65.64 57.67H65.76C66.89 57.67 67.59 58.64 67.33 59.84H67.34ZM65.66 29.34L66.64 27.12C66.97 26.37 67.68 25.77 68.21 25.77L68.68 24.72L70.06 23.54L72.27 20.62C72.33 20.53 72.42 20.53 72.41 20.62L72.14 23.5L72.37 24.95L72.09 25.77H72.14C72.68 25.77 72.85 26.37 72.52 27.12L71.54 29.34H65.64H65.66ZM82.72 63.43H70.35L70.67 59.8C70.78 58.59 71.78 57.6 72.91 57.6L73.23 53.97H75.04L77.4 49.22C77.47 49.08 77.65 49.08 77.71 49.22L79.39 53.92H81.39L81.06 57.61H81.18C82.31 57.61 83.14 58.59 83.03 59.81L82.71 63.44L82.72 63.43ZM82.5 16.24C82.46 16.37 82.38 16.48 82.32 16.48L81.1 16.51C81.04 16.51 81.02 16.41 81.06 16.28L81.91 13.48C82.22 12.46 83.29 9.29 83.43 9.29L83.59 8.79C83.63 8.66 83.71 8.56 83.77 8.55H83.79C83.85 8.55 83.92 8.46 83.97 8.35C83.97 8.35 84.84 6.24 84.92 6.1L84.43 8.39C84.43 8.39 84.42 8.45 84.42 8.48C84.42 8.55 84.45 8.59 84.49 8.59C84.55 8.59 84.56 8.69 84.53 8.81L84.39 9.27C84.53 9.27 83.67 12.43 83.35 13.44L82.5 16.24ZM83.38 16.28L84.03 13.46C84.26 12.44 85.16 9.23 85.35 9.23L85.49 8.73C85.52 8.6 85.62 8.49 85.71 8.49H85.74C85.82 8.49 85.91 8.4 85.94 8.28C85.94 8.28 86.77 6.15 86.85 6.01L86.62 8.32V8.36C86.62 8.46 86.66 8.52 86.73 8.52C86.82 8.52 86.87 8.62 86.84 8.74L86.73 9.2C86.92 9.2 86.33 12.39 86.1 13.42L85.45 16.24C85.42 16.37 85.32 16.47 85.23 16.48L83.5 16.51C83.41 16.51 83.36 16.41 83.4 16.28H83.38ZM85.11 27.06C85.29 26.26 86.04 25.61 86.79 25.61L87.05 24.49L88.52 23.24L90.48 20.12C90.54 20.03 90.66 20.03 90.68 20.12L91.4 23.2L92.28 24.74L92.19 25.61H92.27C93.03 25.61 93.49 26.26 93.32 27.06L92.8 29.44H84.59L85.11 27.06ZM85.69 59.89C85.69 58.7 86.61 57.74 87.74 57.74H87.86V54.14H89.85L91.96 49.56C92.02 49.42 92.21 49.43 92.26 49.56L94.2 54.2H96.01V57.74C97.14 57.74 98.06 58.7 98.06 59.89V63.43H85.69V59.89ZM107.34 265.32H97.8V122.14C97.8 119.67 98.47 117.27 99.71 115.37L101.85 112.08C102.22 111.49 102.92 111.49 103.3 112.08L105.82 115.97C106.8 117.48 107.34 119.39 107.34 121.37V265.33V265.32ZM114.29 63.43H101.92V59.89C101.92 58.7 102.84 57.74 103.97 57.74H104.09V54.14H106.08L108.19 49.56C108.25 49.42 108.44 49.43 108.49 49.56L110.43 54.2H112.24V57.74C113.37 57.74 114.29 58.7 114.29 59.89V63.43ZM106.53 29.44L106.01 27.06C105.83 26.26 106.3 25.61 107.05 25.61H107.13L107.05 24.74L107.93 23.2L108.65 20.12C108.67 20.03 108.79 20.03 108.85 20.12L110.82 23.24L112.29 24.49L112.54 25.61C113.3 25.61 114.05 26.26 114.22 27.06L114.74 29.44H106.53ZM115.11 16.51L113.38 16.48C113.29 16.48 113.2 16.37 113.16 16.24L112.51 13.42C112.27 12.39 111.69 9.19 111.88 9.2L111.77 8.74C111.74 8.61 111.79 8.51 111.87 8.52C111.94 8.52 111.99 8.45 111.99 8.36V8.32L111.76 6.01C111.84 6.15 112.67 8.28 112.67 8.28C112.7 8.4 112.79 8.49 112.87 8.49H112.9C112.99 8.49 113.08 8.6 113.12 8.73L113.26 9.23C113.44 9.23 114.34 12.44 114.58 13.46L115.23 16.28C115.26 16.41 115.22 16.51 115.13 16.51H115.11ZM115.25 9.27L115.11 8.81C115.08 8.69 115.09 8.59 115.15 8.59C115.19 8.59 115.22 8.55 115.22 8.48C115.22 8.45 115.22 8.43 115.21 8.39L114.72 6.1C114.8 6.24 115.67 8.35 115.67 8.35C115.71 8.47 115.79 8.55 115.85 8.55H115.87C115.93 8.55 116.01 8.66 116.05 8.79L116.21 9.29C116.35 9.29 117.42 12.46 117.73 13.48L118.58 16.28C118.62 16.41 118.6 16.51 118.54 16.51L117.32 16.48C117.26 16.48 117.18 16.37 117.14 16.24L116.29 13.44C115.98 12.42 115.12 9.26 115.25 9.27ZM116.46 59.8C116.35 58.59 117.18 57.6 118.31 57.6H118.43L118.1 53.91H120.09L121.78 49.21C121.83 49.07 122.01 49.08 122.08 49.21L124.44 53.96H126.25L126.57 57.59C127.7 57.59 128.71 58.57 128.82 59.79L129.14 63.42H116.77L116.45 59.79L116.46 59.8Z" fill="white"/>
</svg>
